<svg width="18" height="20" fill="none" xmlns="http://www.w3.org/2000/svg"><g clip-path="url(#clip0_12_64)"><path d="M12.25 11.875c-1.121 0-1.66.625-3.5.625s-2.375-.625-3.5-.625A5.251 5.251 0 000 17.125v1C0 19.16.84 20 1.875 20h13.75c1.035 0 1.875-.84 1.875-1.875v-1a5.251 5.251 0 00-5.25-5.25zm3.375 6.25H1.875v-1A3.38 3.38 0 015.25 13.75c.57 0 1.496.625 3.5.625 2.02 0 2.926-.625 3.5-.625a3.38 3.38 0 013.375 3.375v1zM8.75 11.25a5.626 5.626 0 005.625-5.625A5.626 5.626 0 008.75 0a5.626 5.626 0 00-5.625 5.625A5.626 5.626 0 008.75 11.25zm0-9.375a3.756 3.756 0 013.75 3.75 3.756 3.756 0 01-3.75 3.75A3.756 3.756 0 015 5.625a3.756 3.756 0 013.75-3.75z" fill="#000" stroke="#000" stroke-width=".039"/></g><defs><clipPath id="clip0_12_64"><path fill="#fff" d="M0 0h17.5v20H0z"/></clipPath></defs></svg>