<svg width="136" height="25" fill="none" xmlns="http://www.w3.org/2000/svg"><path d="M15.01 3l-4.11 7.89L6.79 3H.97l7.35 12.48V24h5.16v-8.55L20.83 3h-5.82zm3.766 14.1c0 1.44.34 2.7 1.02 3.78.68 1.08 1.62 1.92 2.82 2.52 1.2.6 2.55.9 4.05.9s2.84-.3 4.02-.9c1.2-.6 2.14-1.44 2.82-2.52.7-1.08 1.05-2.34 1.05-3.78 0-1.46-.35-2.73-1.05-3.81-.68-1.08-1.62-1.92-2.82-2.52-1.18-.6-2.52-.9-4.02-.9-1.5 0-2.85.3-4.05.9-1.2.6-2.14 1.44-2.82 2.52-.68 1.08-1.02 2.35-1.02 3.81zm4.65 0c0-.72.15-1.34.45-1.86.3-.52.69-.92 1.17-1.2.48-.28 1.02-.42 1.62-.42.58 0 1.11.14 1.59.42.5.28.89.68 1.17 1.2.3.52.45 1.14.45 1.86 0 .72-.15 1.34-.45 1.86-.28.5-.67.89-1.17 1.17-.48.28-1.01.42-1.59.42-.6 0-1.14-.14-1.62-.42-.48-.28-.87-.67-1.17-1.17-.3-.52-.45-1.14-.45-1.86zm18.596 1.5v-8.4h-4.74v8.88c0 1.64.39 2.93 1.17 3.87.8.92 2.06 1.38 3.78 1.38 1.02 0 1.87-.21 2.55-.63.68-.44 1.23-1.03 1.65-1.77V24h4.53V10.2h-4.53v8.4c0 .54-.1 1-.3 1.38-.2.38-.48.67-.84.87-.34.2-.76.3-1.26.3-.74 0-1.26-.22-1.56-.66-.3-.46-.45-1.09-.45-1.89zm16.745-5.04h3.93c1.46 0 2.74-.2 3.84-.6 1.12-.42 2-1.02 2.64-1.8.66-.78.99-1.72.99-2.82 0-1.2-.33-2.19-.99-2.97-.64-.8-1.52-1.39-2.64-1.77-1.1-.4-2.38-.6-3.84-.6h-7.71v21h8.22c1.66 0 3.1-.2 4.32-.6 1.22-.42 2.16-1.06 2.82-1.92.68-.86 1.02-1.99 1.02-3.39 0-1.06-.24-1.96-.72-2.7a5.515 5.515 0 00-1.86-1.86c-.78-.5-1.65-.86-2.61-1.08-.96-.22-1.95-.33-2.97-.33h-4.44v2.76h3.87c.5 0 .95.05 1.35.15.42.08.79.22 1.11.42.32.2.57.46.75.78.18.32.27.7.27 1.14 0 .68-.16 1.22-.48 1.62-.3.38-.71.66-1.23.84-.52.16-1.11.24-1.77.24h-2.58V6.93h2.1c.88 0 1.56.18 2.04.54.48.36.72.9.72 1.62 0 .48-.11.89-.33 1.23-.22.32-.54.57-.96.75-.4.18-.89.27-1.47.27h-3.39v2.22zM78.93 10.2h-4.47V24h4.47V10.2zm3.99 4.68l1.95-3.87c-.24-.36-.59-.64-1.05-.84-.46-.2-.94-.3-1.44-.3-.76 0-1.49.25-2.19.75s-1.27 1.18-1.71 2.04c-.42.86-.63 1.84-.63 2.94l1.08 1.59c0-.66.09-1.22.27-1.68.18-.46.44-.81.78-1.05s.73-.36 1.17-.36c.4 0 .73.07.99.21a3 3 0 01.78.57zm7.383 4.8c0-.34.08-.62.24-.84.16-.24.4-.42.72-.54.32-.12.75-.18 1.29-.18.7 0 1.36.1 1.98.3.64.18 1.2.45 1.68.81v-2.01c-.24-.26-.6-.51-1.08-.75-.48-.24-1.06-.44-1.74-.6-.66-.16-1.41-.24-2.25-.24-1.72 0-3.05.39-3.99 1.17-.94.76-1.41 1.8-1.41 3.12 0 .94.22 1.74.66 2.4.46.66 1.06 1.16 1.8 1.5.76.32 1.58.48 2.46.48.88 0 1.7-.15 2.46-.45.76-.32 1.38-.78 1.86-1.38.48-.62.72-1.37.72-2.25l-.48-1.8c0 .64-.14 1.18-.42 1.62-.28.44-.64.77-1.08.99-.44.22-.92.33-1.44.33-.36 0-.69-.06-.99-.18-.3-.14-.54-.33-.72-.57-.18-.26-.27-.57-.27-.93zm-2.01-5.25c.2-.12.52-.27.96-.45.44-.2.95-.37 1.53-.51.6-.14 1.21-.21 1.83-.21.42 0 .79.04 1.11.12.34.08.62.21.84.39.22.18.38.4.48.66.12.24.18.53.18.87V24h4.35v-9.72c0-.96-.28-1.77-.84-2.43-.56-.66-1.32-1.16-2.28-1.5-.96-.36-2.05-.54-3.27-.54-1.3 0-2.5.17-3.6.51-1.1.34-2.04.7-2.82 1.08l1.53 3.03zm23.642 1.17V24h4.71v-8.88c0-1.66-.39-2.95-1.17-3.87-.78-.92-2.03-1.38-3.75-1.38-1.02 0-1.88.21-2.58.63-.68.42-1.22 1.01-1.62 1.77V10.2h-4.56V24h4.56v-8.4c0-.54.1-1 .3-1.38.2-.38.48-.67.84-.87.36-.2.78-.3 1.26-.3.72 0 1.23.22 1.53.66.32.44.48 1.07.48 1.89zm18.756-15V24h4.53V.6h-4.53zm-11.28 16.5c0 1.54.31 2.85.93 3.93.64 1.06 1.46 1.87 2.46 2.43s2.06.84 3.18.84c1.16 0 2.18-.29 3.06-.87.9-.58 1.61-1.41 2.13-2.49.52-1.08.78-2.36.78-3.84 0-1.5-.26-2.78-.78-3.84-.52-1.08-1.23-1.91-2.13-2.49-.88-.58-1.9-.87-3.06-.87-1.12 0-2.18.28-3.18.84-1 .56-1.82 1.37-2.46 2.43-.62 1.06-.93 2.37-.93 3.93zm4.77 0c0-.72.15-1.34.45-1.86.3-.54.7-.95 1.2-1.23.5-.3 1.05-.45 1.65-.45.52 0 1.02.14 1.5.42.5.28.91.69 1.23 1.23.32.52.48 1.15.48 1.89s-.16 1.38-.48 1.92c-.32.52-.73.92-1.23 1.2-.48.28-.98.42-1.5.42-.6 0-1.15-.14-1.65-.42-.5-.3-.9-.71-1.2-1.23-.3-.54-.45-1.17-.45-1.89z" fill="#000"/></svg>