<svg width="23" height="20" fill="none" xmlns="http://www.w3.org/2000/svg"><g clip-path="url(#clip0_12_66)"><path d="M20.629 6.7l-5.707-.833L12.37.695c-.457-.922-1.781-.933-2.242 0l-2.55 5.172-5.707.833C.848 6.848.437 8.11 1.18 8.832l4.128 4.023-.976 5.684c-.176 1.027.906 1.797 1.812 1.316l5.106-2.683 5.105 2.683c.907.477 1.989-.289 1.813-1.316l-.977-5.684 4.13-4.023c.741-.723.331-1.984-.692-2.133zm-5.45 5.5l.926 5.405-4.855-2.55-4.856 2.55.926-5.406-3.93-3.828 5.43-.789 2.43-4.922 2.43 4.922 5.43.79-3.93 3.827z" fill="#000"/></g><defs><clipPath id="clip0_12_66"><path fill="#fff" d="M0 0h22.5v20H0z"/></clipPath></defs></svg>