<svg width="18" height="20" viewBox="0 0 18 20" fill="none" xmlns="http://www.w3.org/2000/svg">
<path d="M14.2499 5C14.2499 2.24297 12.0069 0 9.24988 0C6.49285 0 4.24988 2.24297 4.24988 5H0.499878V16.875C0.499878 18.6009 1.89898 20 3.62488 20H14.8749C16.6008 20 17.9999 18.6009 17.9999 16.875V5H14.2499ZM9.24988 1.875C10.973 1.875 12.3749 3.27688 12.3749 5H6.12488C6.12488 3.27688 7.52675 1.875 9.24988 1.875ZM16.1249 16.875C16.1249 17.5643 15.5641 18.125 14.8749 18.125H3.62488C2.93562 18.125 2.37488 17.5643 2.37488 16.875V6.875H4.24988V8.4375C4.24988 8.95527 4.6696 9.375 5.18738 9.375C5.70515 9.375 6.12488 8.95527 6.12488 8.4375V6.875H12.3749V8.4375C12.3749 8.95527 12.7946 9.375 13.3124 9.375C13.8302 9.375 14.2499 8.95527 14.2499 8.4375V6.875H16.1249V16.875Z" fill="black"/>
</svg>
