<svg width="136" height="25" viewBox="0 0 136 25" fill="none" xmlns="http://www.w3.org/2000/svg">
<path d="M15.01 3.00001L10.9 10.89L6.78997 3.00001H0.969971L8.31997 15.48V24H13.48V15.45L20.83 3.00001H15.01Z" fill="black"/>
<path d="M18.7764 17.1C18.7764 18.54 19.1164 19.8 19.7964 20.88C20.4764 21.96 21.4164 22.8 22.6164 23.4C23.8164 24 25.1664 24.3 26.6664 24.3C28.1664 24.3 29.5064 24 30.6864 23.4C31.8864 22.8 32.8264 21.96 33.5064 20.88C34.2064 19.8 34.5564 18.54 34.5564 17.1C34.5564 15.64 34.2064 14.37 33.5064 13.29C32.8264 12.21 31.8864 11.37 30.6864 10.77C29.5064 10.17 28.1664 9.87001 26.6664 9.87001C25.1664 9.87001 23.8164 10.17 22.6164 10.77C21.4164 11.37 20.4764 12.21 19.7964 13.29C19.1164 14.37 18.7764 15.64 18.7764 17.1ZM23.4264 17.1C23.4264 16.38 23.5764 15.76 23.8764 15.24C24.1764 14.72 24.5664 14.32 25.0464 14.04C25.5264 13.76 26.0664 13.62 26.6664 13.62C27.2464 13.62 27.7764 13.76 28.2564 14.04C28.7564 14.32 29.1464 14.72 29.4264 15.24C29.7264 15.76 29.8764 16.38 29.8764 17.1C29.8764 17.82 29.7264 18.44 29.4264 18.96C29.1464 19.46 28.7564 19.85 28.2564 20.13C27.7764 20.41 27.2464 20.55 26.6664 20.55C26.0664 20.55 25.5264 20.41 25.0464 20.13C24.5664 19.85 24.1764 19.46 23.8764 18.96C23.5764 18.44 23.4264 17.82 23.4264 17.1Z" fill="black"/>
<path d="M42.0217 18.6V10.2H37.2817V19.08C37.2817 20.72 37.6717 22.01 38.4517 22.95C39.2517 23.87 40.5117 24.33 42.2317 24.33C43.2517 24.33 44.1017 24.12 44.7817 23.7C45.4617 23.26 46.0117 22.67 46.4317 21.93V24H50.9617V10.2H46.4317V18.6C46.4317 19.14 46.3317 19.6 46.1317 19.98C45.9317 20.36 45.6517 20.65 45.2917 20.85C44.9517 21.05 44.5317 21.15 44.0317 21.15C43.2917 21.15 42.7717 20.93 42.4717 20.49C42.1717 20.03 42.0217 19.4 42.0217 18.6Z" fill="black"/>
<path d="M58.7675 13.56H62.6975C64.1575 13.56 65.4376 13.36 66.5376 12.96C67.6576 12.54 68.5376 11.94 69.1776 11.16C69.8376 10.38 70.1675 9.44001 70.1675 8.34001C70.1675 7.14001 69.8376 6.15001 69.1776 5.37001C68.5376 4.57001 67.6576 3.98001 66.5376 3.60001C65.4376 3.20001 64.1575 3.00001 62.6975 3.00001H54.9875V24H63.2076C64.8675 24 66.3075 23.8 67.5275 23.4C68.7476 22.98 69.6875 22.34 70.3475 21.48C71.0275 20.62 71.3675 19.49 71.3675 18.09C71.3675 17.03 71.1276 16.13 70.6476 15.39C70.1876 14.63 69.5676 14.01 68.7876 13.53C68.0076 13.03 67.1376 12.67 66.1776 12.45C65.2176 12.23 64.2276 12.12 63.2076 12.12H58.7675V14.88H62.6376C63.1376 14.88 63.5875 14.93 63.9875 15.03C64.4075 15.11 64.7775 15.25 65.0975 15.45C65.4175 15.65 65.6675 15.91 65.8475 16.23C66.0275 16.55 66.1175 16.93 66.1175 17.37C66.1175 18.05 65.9576 18.59 65.6376 18.99C65.3375 19.37 64.9276 19.65 64.4076 19.83C63.8876 19.99 63.2976 20.07 62.6376 20.07H60.0575V6.93001H62.1576C63.0376 6.93001 63.7175 7.11001 64.1975 7.47001C64.6775 7.83001 64.9175 8.37001 64.9175 9.09001C64.9175 9.57001 64.8076 9.98001 64.5876 10.32C64.3675 10.64 64.0475 10.89 63.6275 11.07C63.2275 11.25 62.7375 11.34 62.1576 11.34H58.7675V13.56Z" fill="black"/>
<path d="M78.9294 10.2H74.4594V24H78.9294V10.2ZM82.9194 14.88L84.8694 11.01C84.6294 10.65 84.2794 10.37 83.8194 10.17C83.3594 9.97001 82.8794 9.87001 82.3794 9.87001C81.6194 9.87001 80.8894 10.12 80.1894 10.62C79.4894 11.12 78.9194 11.8 78.4794 12.66C78.0594 13.52 77.8494 14.5 77.8494 15.6L78.9294 17.19C78.9294 16.53 79.0194 15.97 79.1994 15.51C79.3794 15.05 79.6394 14.7 79.9794 14.46C80.3194 14.22 80.7094 14.1 81.1494 14.1C81.5494 14.1 81.8794 14.17 82.1394 14.31C82.4194 14.45 82.6794 14.64 82.9194 14.88Z" fill="black"/>
<path d="M90.3034 19.68C90.3034 19.34 90.3834 19.06 90.5434 18.84C90.7034 18.6 90.9434 18.42 91.2634 18.3C91.5834 18.18 92.0134 18.12 92.5534 18.12C93.2534 18.12 93.9134 18.22 94.5334 18.42C95.1734 18.6 95.7334 18.87 96.2134 19.23V17.22C95.9734 16.96 95.6134 16.71 95.1334 16.47C94.6534 16.23 94.0734 16.03 93.3934 15.87C92.7334 15.71 91.9834 15.63 91.1434 15.63C89.4234 15.63 88.0934 16.02 87.1534 16.8C86.2134 17.56 85.7434 18.6 85.7434 19.92C85.7434 20.86 85.9634 21.66 86.4034 22.32C86.8634 22.98 87.4634 23.48 88.2034 23.82C88.9634 24.14 89.7834 24.3 90.6634 24.3C91.5434 24.3 92.3634 24.15 93.1234 23.85C93.8834 23.53 94.5034 23.07 94.9834 22.47C95.4634 21.85 95.7034 21.1 95.7034 20.22L95.2234 18.42C95.2234 19.06 95.0834 19.6 94.8034 20.04C94.5234 20.48 94.1634 20.81 93.7234 21.03C93.2834 21.25 92.8034 21.36 92.2834 21.36C91.9234 21.36 91.5934 21.3 91.2934 21.18C90.9934 21.04 90.7534 20.85 90.5734 20.61C90.3934 20.35 90.3034 20.04 90.3034 19.68ZM88.2934 14.43C88.4934 14.31 88.8134 14.16 89.2534 13.98C89.6934 13.78 90.2034 13.61 90.7834 13.47C91.3834 13.33 91.9934 13.26 92.6134 13.26C93.0334 13.26 93.4034 13.3 93.7234 13.38C94.0634 13.46 94.3434 13.59 94.5634 13.77C94.7834 13.95 94.9434 14.17 95.0434 14.43C95.1634 14.67 95.2234 14.96 95.2234 15.3V24H99.5734V14.28C99.5734 13.32 99.2934 12.51 98.7334 11.85C98.1734 11.19 97.4134 10.69 96.4534 10.35C95.4934 9.99001 94.4034 9.81001 93.1834 9.81001C91.8834 9.81001 90.6834 9.98001 89.5834 10.32C88.4834 10.66 87.5434 11.02 86.7634 11.4L88.2934 14.43Z" fill="black"/>
<path d="M111.935 15.6V24H116.645V15.12C116.645 13.46 116.255 12.17 115.475 11.25C114.695 10.33 113.445 9.87001 111.725 9.87001C110.705 9.87001 109.845 10.08 109.145 10.5C108.465 10.92 107.925 11.51 107.525 12.27V10.2H102.965V24H107.525V15.6C107.525 15.06 107.625 14.6 107.825 14.22C108.025 13.84 108.305 13.55 108.665 13.35C109.025 13.15 109.445 13.05 109.925 13.05C110.645 13.05 111.155 13.27 111.455 13.71C111.775 14.15 111.935 14.78 111.935 15.6Z" fill="black"/>
<path d="M130.691 0.600006V24H135.221V0.600006H130.691ZM119.411 17.1C119.411 18.64 119.721 19.95 120.341 21.03C120.981 22.09 121.801 22.9 122.801 23.46C123.801 24.02 124.861 24.3 125.981 24.3C127.141 24.3 128.161 24.01 129.041 23.43C129.941 22.85 130.651 22.02 131.171 20.94C131.691 19.86 131.951 18.58 131.951 17.1C131.951 15.6 131.691 14.32 131.171 13.26C130.651 12.18 129.941 11.35 129.041 10.77C128.161 10.19 127.141 9.90001 125.981 9.90001C124.861 9.90001 123.801 10.18 122.801 10.74C121.801 11.3 120.981 12.11 120.341 13.17C119.721 14.23 119.411 15.54 119.411 17.1ZM124.181 17.1C124.181 16.38 124.331 15.76 124.631 15.24C124.931 14.7 125.331 14.29 125.831 14.01C126.331 13.71 126.881 13.56 127.481 13.56C128.001 13.56 128.501 13.7 128.981 13.98C129.481 14.26 129.891 14.67 130.211 15.21C130.531 15.73 130.691 16.36 130.691 17.1C130.691 17.84 130.531 18.48 130.211 19.02C129.891 19.54 129.481 19.94 128.981 20.22C128.501 20.5 128.001 20.64 127.481 20.64C126.881 20.64 126.331 20.5 125.831 20.22C125.331 19.92 124.931 19.51 124.631 18.99C124.331 18.45 124.181 17.82 124.181 17.1Z" fill="black"/>
</svg>
