<svg width="23" height="20" viewBox="0 0 23 20" fill="none" xmlns="http://www.w3.org/2000/svg">
<g clip-path="url(#clip0_12_66)">
<path d="M20.6288 6.69922L14.9218 5.86719L12.371 0.695312C11.914 -0.226563 10.5897 -0.238282 10.1288 0.695312L7.57802 5.86719L1.87099 6.69922C0.847553 6.84766 0.437396 8.10938 1.17958 8.83203L5.30849 12.8555L4.33193 18.5391C4.15615 19.5664 5.23818 20.3359 6.14443 19.8555L11.2499 17.1719L16.3554 19.8555C17.2616 20.332 18.3436 19.5664 18.1679 18.5391L17.1913 12.8555L21.3202 8.83203C22.0624 8.10938 21.6522 6.84766 20.6288 6.69922ZM15.1796 12.1992L16.1054 17.6055L11.2499 15.0547L6.39443 17.6055L7.32021 12.1992L3.39052 8.37109L8.82021 7.58203L11.2499 2.66016L13.6796 7.58203L19.1093 8.37109L15.1796 12.1992Z" fill="black"/>
</g>
<defs>
<clipPath id="clip0_12_66">
<rect width="22.5" height="20" fill="white"/>
</clipPath>
</defs>
</svg>
